<svg width="24" height="25" viewBox="0 0 24 25" fill="none" xmlns="http://www.w3.org/2000/svg">
<path d="M15.14 12.3321C14.7393 12.0748 14.3044 11.8751 13.848 11.7391C13.568 11.6541 13.258 11.5711 12.938 11.4921C12.658 11.4141 12.326 11.3341 11.916 11.2441C11.4267 11.1415 10.9465 10.9997 10.48 10.8201C10.2396 10.7267 10.0274 10.5727 9.86401 10.3731C9.74446 10.2097 9.68766 10.0088 9.70401 9.80706C9.70365 9.59073 9.77583 9.38052 9.90901 9.21006C10.0954 8.99171 10.3372 8.82763 10.609 8.73506C11.0661 8.57798 11.5479 8.50481 12.031 8.51906C12.4049 8.51286 12.7776 8.56206 13.137 8.66506C13.3754 8.73213 13.5999 8.84117 13.8 8.98706C13.9294 9.07941 14.0398 9.19587 14.125 9.33006C14.1868 9.44659 14.2709 9.54976 14.3727 9.63362C14.4745 9.71749 14.5919 9.7804 14.718 9.81872C14.8442 9.85705 14.9767 9.87003 15.108 9.85694C15.2392 9.84384 15.3665 9.80491 15.4827 9.7424C15.5988 9.67989 15.7014 9.59502 15.7846 9.4927C15.8678 9.39037 15.9299 9.27259 15.9674 9.14616C16.0049 9.01972 16.017 8.88711 16.003 8.75598C15.9891 8.62484 15.9493 8.49776 15.886 8.38206C15.6751 8.00907 15.3903 7.68308 15.049 7.42406C14.6547 7.12113 14.2074 6.89426 13.73 6.75506C13.1789 6.59225 12.6066 6.5127 12.032 6.51906C11.3016 6.50334 10.5745 6.62197 9.88701 6.86906C9.26524 7.0954 8.71905 7.49093 8.31001 8.01106C7.91824 8.52823 7.70615 9.15924 7.70601 9.80806C7.68979 10.454 7.89439 11.0861 8.28601 11.6001C8.6641 12.0762 9.1597 12.4457 9.72401 12.6721C10.1504 12.8361 10.587 12.9724 11.031 13.0801C11.039 13.0831 11.045 13.0901 11.053 13.0921C11.245 13.1501 11.551 13.2271 11.993 13.3221C12.166 13.3601 12.328 13.4011 12.49 13.4421C12.506 13.4461 12.529 13.4511 12.544 13.4561L12.562 13.4581C12.81 13.5221 13.049 13.5871 13.268 13.6541C13.5371 13.7328 13.7939 13.8486 14.031 13.9981C14.1789 14.0909 14.3032 14.2169 14.394 14.3661C14.4819 14.548 14.5225 14.7492 14.512 14.9511C14.5259 15.2123 14.4504 15.4704 14.298 15.6831C14.0922 15.9508 13.8139 16.1539 13.496 16.2681C13.0223 16.4509 12.5166 16.5366 12.009 16.5201C11.4221 16.5426 10.8382 16.4247 10.306 16.1761C10.0602 16.0451 9.84907 15.8577 9.69001 15.6291C9.57837 15.4828 9.50855 15.3089 9.48801 15.1261C9.48801 14.8608 9.38266 14.6065 9.19512 14.4189C9.00758 14.2314 8.75323 14.1261 8.48801 14.1261C8.2228 14.1261 7.96844 14.2314 7.78091 14.4189C7.59337 14.6065 7.48801 14.8608 7.48801 15.1261C7.5045 15.7161 7.69824 16.2876 8.04401 16.7661C8.38958 17.2637 8.84989 17.6708 9.38601 17.9531C10.2017 18.3511 11.1017 18.5456 12.009 18.5201C12.78 18.5387 13.5468 18.4009 14.263 18.1151C14.9288 17.8596 15.5069 17.4176 15.928 16.8421C16.3283 16.2813 16.5335 15.6047 16.512 14.9161C16.5213 14.3822 16.3921 13.8551 16.137 13.3861C15.8906 12.9626 15.5494 12.6022 15.14 12.3331V12.3321ZM22.361 14.2101C22.6306 12.5666 22.5051 10.8826 21.9949 9.29735C21.4846 7.71206 20.6043 6.27102 19.4267 5.09341C18.2491 3.9158 16.808 3.03547 15.2227 2.52521C13.6374 2.01496 11.9534 1.88945 10.31 2.15906C9.09663 1.57728 7.73257 1.38649 6.40612 1.61303C5.07968 1.83957 3.85626 2.47226 2.90474 3.42378C1.95322 4.3753 1.32052 5.59872 1.09398 6.92516C0.867444 8.25161 1.05823 9.61567 1.64001 10.8291C1.37063 12.4723 1.49627 14.1561 2.00655 15.7411C2.51684 17.3262 3.3971 18.767 4.57456 19.9445C5.75203 21.122 7.19286 22.0022 8.77793 22.5125C10.363 23.0228 12.0468 23.1484 13.69 22.8791C14.9034 23.4608 16.2675 23.6516 17.5939 23.4251C18.9203 23.1985 20.1438 22.5658 21.0953 21.6143C22.0468 20.6628 22.6795 19.4394 22.906 18.1129C23.1326 16.7865 22.9418 15.4224 22.36 14.2091L22.361 14.2101ZM16.5 21.5191C15.7412 21.5187 14.9948 21.3268 14.33 20.9611C14.1238 20.8474 13.8841 20.8099 13.653 20.8551C12.4206 21.1009 11.149 21.0701 9.92986 20.7649C8.71077 20.4597 7.57461 19.8878 6.60333 19.0903C5.63206 18.2929 4.84988 17.2898 4.31323 16.1534C3.77658 15.0171 3.49883 13.7758 3.50001 12.5191C3.50104 11.9637 3.55597 11.4098 3.66401 10.8651C3.70925 10.6339 3.67173 10.3943 3.55801 10.1881C3.08847 9.33405 2.90886 8.3507 3.0462 7.38585C3.18353 6.421 3.63039 5.52681 4.31957 4.83774C5.00876 4.14867 5.90302 3.70196 6.86789 3.56478C7.83276 3.4276 8.81609 3.60737 9.67001 4.07706C9.87644 4.19126 10.1166 4.2288 10.348 4.18306C11.5804 3.93742 12.8519 3.96834 14.0709 4.27359C15.2898 4.57883 16.4259 5.1508 17.397 5.94824C18.3682 6.74568 19.1502 7.7487 19.6868 8.88498C20.2234 10.0213 20.5012 11.2625 20.5 12.5191C20.499 13.0744 20.4441 13.6283 20.336 14.1731C20.2908 14.4042 20.3283 14.6438 20.442 14.8501C20.8192 15.5352 21.0113 16.3067 20.9994 17.0887C20.9875 17.8707 20.7719 18.6361 20.3739 19.3094C19.976 19.9826 19.4094 20.5405 18.73 20.928C18.0507 21.3155 17.2821 21.5192 16.5 21.5191Z" fill="white"/>
</svg>
