<svg width="22" height="22" viewBox="0 0 22 22" fill="none" xmlns="http://www.w3.org/2000/svg">
<path d="M20.951 15.1331C20.3338 14.9894 19.7518 14.7229 19.2396 14.3496C18.7275 13.9763 18.2957 13.5037 17.97 12.9601C17.8214 12.7403 17.5915 12.5887 17.331 12.5384C17.0705 12.4882 16.8008 12.5434 16.581 12.6921C16.3613 12.8407 16.2096 13.0706 16.1594 13.3311C16.1091 13.5916 16.1644 13.8613 16.313 14.0811C16.9326 15.0266 17.7531 15.8239 18.716 16.4161C18.581 16.4411 18.435 16.4661 18.274 16.4911C17.9896 16.5517 17.7319 16.7014 17.5384 16.9184C17.3449 17.1355 17.2257 17.4086 17.198 17.6981C16.5316 17.5845 15.8509 17.5831 15.184 17.6941C14.4647 17.8528 13.7936 18.1805 13.226 18.6501C12.6419 19.1675 11.901 19.4739 11.122 19.5201H10.862C10.0821 19.4737 9.34043 19.1666 8.75602 18.6481C8.19654 18.1843 7.5357 17.8589 6.82702 17.6981C6.15114 17.5905 5.46237 17.5922 4.78702 17.7031C4.76067 17.415 4.64368 17.1427 4.45287 16.9253C4.26205 16.7079 4.00723 16.5566 3.72502 16.4931C3.5796 16.4706 3.43458 16.4456 3.29002 16.4181C3.96978 16.0249 4.57694 15.5178 5.08502 14.9191C5.31956 14.6472 5.53191 14.3569 5.72002 14.0511C5.86059 13.8262 5.90605 13.5546 5.84642 13.2962C5.78678 13.0378 5.62693 12.8136 5.40202 12.6731C5.17712 12.5325 4.90559 12.4871 4.64716 12.5467C4.38874 12.6063 4.16459 12.7662 4.02402 12.9911C3.89088 13.2077 3.74109 13.4137 3.57602 13.6071C2.93681 14.4073 2.03027 14.9498 1.02302 15.1351C0.730613 15.1814 0.46492 15.3322 0.275168 15.5595C0.0854161 15.7868 -0.0155331 16.0751 -0.00897694 16.3711C-0.00936969 16.5549 0.0298534 16.7367 0.106023 16.9041C0.422023 17.6201 1.26202 18.0721 2.89102 18.3781L2.92102 18.5081C2.95102 18.6261 2.97902 18.7471 3.01402 18.8561C3.0908 19.1338 3.25839 19.3777 3.49003 19.549C3.72168 19.7203 4.00403 19.809 4.29202 19.8011C4.49575 19.7959 4.69815 19.7667 4.89502 19.7141C5.41784 19.6082 5.95495 19.5926 6.48302 19.6681C6.89741 19.791 7.28044 20.0018 7.60602 20.2861C8.52542 21.0449 9.66963 21.4791 10.861 21.5211H11.122C12.321 21.4772 13.472 21.0384 14.396 20.2731C14.723 19.9881 15.1093 19.7798 15.527 19.6631C15.733 19.6271 15.9419 19.6097 16.151 19.6111C16.4723 19.6104 16.7927 19.6459 17.106 19.7171C17.3093 19.7552 17.5153 19.7766 17.722 19.7811C18.0029 19.7886 18.2782 19.7018 18.5039 19.5345C18.7296 19.3672 18.8926 19.129 18.967 18.8581C19.005 18.7361 19.034 18.6181 19.061 18.5031L19.093 18.3791C20.717 18.0741 21.56 17.6251 21.86 16.9391C21.9362 16.79 21.9795 16.6263 21.987 16.4591C22.0118 16.1485 21.9191 15.8399 21.7272 15.5943C21.5354 15.3488 21.2584 15.1842 20.951 15.1331ZM2.80102 10.6671C3.00564 10.7059 3.21725 10.6801 3.40661 10.5934C3.59596 10.5067 3.7537 10.3633 3.85802 10.1831C4.25428 10.3848 4.68888 10.5 5.13302 10.5211C5.60383 10.5272 6.05818 10.348 6.39802 10.0221C6.50573 9.92183 6.58998 9.79905 6.64478 9.66249C6.69957 9.52594 6.72356 9.37897 6.71502 9.23208L6.67902 8.63008C6.51519 7.44342 6.56805 6.23687 6.83502 5.06908C7.17253 4.30192 7.72883 3.65137 8.43429 3.19885C9.13974 2.74633 9.96301 2.51196 10.801 2.52508L11.189 2.52108C12.0262 2.50993 12.8482 2.74551 13.5524 3.19845C14.2567 3.65139 14.8119 4.30163 15.149 5.06808C15.416 6.23688 15.4689 7.44442 15.305 8.63208L15.295 8.79508L15.268 9.23908C15.2625 9.3834 15.2874 9.52728 15.3411 9.66133C15.3949 9.79538 15.4763 9.91659 15.58 10.0171C15.9166 10.3417 16.3665 10.5221 16.834 10.5201C17.2679 10.4822 17.6898 10.3581 18.075 10.1551C18.1531 10.333 18.2813 10.4842 18.444 10.5904C18.6067 10.6966 18.7968 10.7532 18.991 10.7531H19.009C19.2741 10.7483 19.5264 10.6386 19.7105 10.4479C19.8947 10.2572 19.9956 10.0011 19.991 9.73608C19.965 9.40225 19.8376 9.08435 19.6258 8.825C19.414 8.56566 19.1279 8.37726 18.806 8.28508C18.5714 8.18883 18.3201 8.14015 18.0665 8.14187C17.813 8.14358 17.5623 8.19566 17.329 8.29508C17.5044 6.938 17.3836 5.55902 16.975 4.25308C16.4828 3.13012 15.6705 2.17717 14.6396 1.51339C13.6087 0.84961 12.405 0.504456 11.179 0.521081L10.786 0.525081C9.56309 0.510213 8.36289 0.856092 7.33541 1.51949C6.30794 2.18289 5.49877 3.13439 5.00902 4.25508C4.59714 5.57826 4.47705 6.97501 4.65702 8.34908L4.54602 8.29708C4.30162 8.1983 4.0394 8.1512 3.77589 8.15876C3.51239 8.16633 3.2533 8.22838 3.01496 8.34102C2.77662 8.45366 2.5642 8.61444 2.39107 8.81324C2.21794 9.01203 2.08786 9.24453 2.00902 9.49608C1.95944 9.75646 2.01505 10.0259 2.16368 10.2454C2.3123 10.4648 2.54184 10.6165 2.80202 10.6671H2.80102Z" fill="white"/>
</svg>
