<svg width="21" height="13" viewBox="0 0 21 13" fill="none" xmlns="http://www.w3.org/2000/svg">
<path d="M18.07 0.86908H13V2.27908H18.09L18.07 0.86908ZM17 10.5691C16.6154 10.8239 16.1612 10.9532 15.7 10.9391C15.3947 10.9709 15.0862 10.9394 14.7937 10.8465C14.5011 10.7535 14.2309 10.6012 14 10.3991C13.573 9.91496 13.3507 9.28393 13.38 8.63908H20C20.0477 7.96763 19.9904 7.29284 19.83 6.63908C19.6749 6.0171 19.4034 5.43011 19.03 4.90908C18.6541 4.40368 18.1686 3.99 17.61 3.69908C16.9884 3.39262 16.3029 3.23838 15.61 3.24908C14.9583 3.24431 14.3123 3.37012 13.71 3.61908C13.1585 3.85157 12.6588 4.19151 12.24 4.61908C11.8224 5.0552 11.499 5.5726 11.29 6.13908C11.0657 6.75063 10.9539 7.39772 10.96 8.04908C10.9497 8.70969 11.0581 9.36678 11.28 9.98908C11.4685 10.5526 11.7677 11.0728 12.16 11.5191C12.5659 11.9572 13.0648 12.2989 13.62 12.5191C14.2391 12.755 14.8976 12.8704 15.56 12.8591C16.4894 12.8881 17.407 12.6447 18.2 12.1591C19.0009 11.5899 19.5775 10.7586 19.83 9.80908H17.62C17.5017 10.1232 17.284 10.3901 17 10.5691ZM13.57 6.44908C13.6478 6.19976 13.777 5.96951 13.9493 5.77316C14.1215 5.57682 14.3329 5.41873 14.57 5.30908C14.884 5.16777 15.2258 5.09939 15.57 5.10908C15.8186 5.08785 16.0689 5.12064 16.3036 5.20522C16.5384 5.2898 16.7521 5.42416 16.93 5.59908C17.2698 6.01501 17.4878 6.51687 17.56 7.04908H13.41C13.4262 6.84586 13.463 6.64482 13.52 6.44908H13.57ZM8.28 5.96908C8.78896 5.75714 9.23121 5.41164 9.56 4.96908C9.86222 4.49908 10.0124 3.94741 9.99 3.38908C10.0096 2.87992 9.91031 2.37319 9.7 1.90908C9.52331 1.507 9.23968 1.16111 8.88 0.90908C8.49865 0.647053 8.06561 0.469743 7.61 0.38908C7.07082 0.275993 6.52087 0.22234 5.97 0.22908H0V12.8091H6.1C6.65669 12.8095 7.21116 12.7389 7.75 12.5991C8.26075 12.467 8.74462 12.247 9.18 11.9491C9.60174 11.6568 9.94515 11.2653 10.18 10.8091C10.4399 10.2989 10.5672 9.73142 10.55 9.15908C10.5689 8.44982 10.37 7.75179 9.98 7.15908C9.56059 6.563 8.93852 6.14 8.23 5.96908H8.28ZM2.77 2.37908H5.36C5.59795 2.37879 5.83548 2.39886 6.07 2.43908C6.28595 2.47108 6.49334 2.54588 6.68 2.65908C6.86035 2.76109 7.00648 2.91419 7.1 3.09908C7.21582 3.3208 7.27102 3.56918 7.26 3.81908C7.27863 4.03432 7.24572 4.2509 7.16399 4.45088C7.08225 4.65087 6.95405 4.8285 6.79 4.96908C6.43212 5.21511 6.00388 5.33797 5.57 5.31908H2.77V2.37908ZM7.61 9.81908C7.50726 10.0229 7.35189 10.1955 7.16 10.3191C6.9603 10.4433 6.74027 10.5313 6.51 10.5791C6.25406 10.6364 5.99224 10.6632 5.73 10.6591H2.73V7.20908H5.73C6.24482 7.18654 6.75322 7.33029 7.18 7.61908C7.37281 7.79211 7.52217 8.00811 7.61599 8.2496C7.7098 8.49108 7.74543 8.75126 7.72 9.00908C7.74704 9.28396 7.70936 9.56136 7.61 9.81908Z" fill="white"/>
</svg>
