<svg width="22" height="21" viewBox="0 0 22 21" fill="none" xmlns="http://www.w3.org/2000/svg">
<path d="M21.265 0.946946C20.9803 0.710103 20.6367 0.554893 20.2708 0.497839C19.9049 0.440785 19.5303 0.484021 19.187 0.622946L1.26603 7.85795C0.882879 8.01564 0.556737 8.28611 0.33087 8.63346C0.105002 8.98081 -0.00991377 9.38863 0.00136816 9.80281C0.0126501 10.217 0.149597 10.6179 0.394038 10.9525C0.63848 11.287 0.978863 11.5393 1.37003 11.6759L4.99503 12.9369L7.01503 19.6189C7.04271 19.7081 7.08277 19.7929 7.13403 19.8709C7.14203 19.8829 7.15303 19.8909 7.16103 19.9039C7.21996 19.986 7.29112 20.0585 7.37203 20.1189C7.39461 20.1366 7.41797 20.1533 7.44203 20.1689C7.53675 20.2318 7.64162 20.2778 7.75203 20.3049L7.76503 20.3059L7.77103 20.3089C7.83786 20.3224 7.90586 20.3291 7.97403 20.3289L7.99203 20.3259C8.09444 20.3242 8.19598 20.3067 8.29303 20.2739C8.31603 20.2659 8.33503 20.2539 8.35703 20.2439C8.42962 20.2142 8.49844 20.1759 8.56203 20.1299C8.61268 20.0869 8.66334 20.0439 8.71403 20.0009L11.416 17.0179L15.446 20.1399C15.8007 20.4162 16.2374 20.5665 16.687 20.5669C17.1583 20.5664 17.615 20.4038 17.9806 20.1065C18.3462 19.8092 18.5984 19.3952 18.695 18.9339L21.958 2.91695C22.0318 2.5566 22.0063 2.18298 21.8843 1.836C21.7622 1.48902 21.5482 1.18172 21.265 0.946946ZM8.37003 13.2549C8.23153 13.3932 8.13691 13.5692 8.09803 13.7609L7.78803 15.2649L7.00403 12.6719L11.069 10.5549L8.37003 13.2549ZM16.672 18.5589L11.909 14.8689C11.7097 14.7152 11.4598 14.6421 11.2091 14.6643C10.9583 14.6866 10.7251 14.8025 10.556 14.9889L9.69003 15.9439L9.99603 14.4569L17.079 7.37395C17.2471 7.20486 17.3492 6.9813 17.367 6.74357C17.3848 6.50583 17.317 6.26957 17.176 6.07737C17.0349 5.88517 16.8299 5.74969 16.5978 5.69534C16.3656 5.64098 16.1217 5.67135 15.91 5.78095L5.74503 11.0729L2.02003 9.70995L19.999 2.51895L16.672 18.5589Z" fill="white"/>
</svg>
