<svg width="22" height="23" viewBox="0 0 22 23" fill="none" xmlns="http://www.w3.org/2000/svg">
<path d="M10.991 0.518999C9.55774 0.466786 8.12877 0.705587 6.79036 1.22098C5.45196 1.73638 4.23189 2.51768 3.20383 3.5177C2.17577 4.51772 1.36104 5.71573 0.80884 7.03937C0.256642 8.36302 -0.0215707 9.78484 -0.0089993 11.219C-0.0279268 12.6969 0.26654 14.162 0.854998 15.5179C1.44346 16.8737 2.31255 18.0895 3.405 19.085L3.457 20.775C3.47155 21.2424 3.66746 21.6859 4.00325 22.0114C4.33903 22.3369 4.78833 22.519 5.256 22.519C5.50587 22.5187 5.753 22.467 5.982 22.367L7.903 21.519C8.91036 21.7871 9.94859 21.9215 10.991 21.919C12.4243 21.9712 13.8533 21.7324 15.1918 21.217C16.5302 20.7016 17.7504 19.9204 18.7785 18.9204C19.8067 17.9203 20.6215 16.7223 21.1738 15.3987C21.7261 14.0751 22.0044 12.6532 21.992 11.219C22.0044 9.78488 21.7261 8.36312 21.1739 7.03954C20.6216 5.71596 19.8069 4.51802 18.7789 3.51802C17.7508 2.51803 16.5308 1.73672 15.1925 1.22127C13.8541 0.705828 12.4252 0.466929 10.992 0.518999H10.991ZM10.991 19.919C10.1009 19.9218 9.21451 19.804 8.356 19.569C7.95855 19.4619 7.5364 19.4944 7.16 19.661L5.446 20.417L5.401 18.924C5.39119 18.6821 5.33295 18.4446 5.22971 18.2256C5.12648 18.0066 4.98036 17.8105 4.8 17.649C3.90028 16.8395 3.18407 15.847 2.69942 14.738C2.21477 13.629 1.97289 12.4292 1.99 11.219C1.98369 10.0492 2.21446 8.89026 2.66836 7.8121C3.12227 6.73394 3.7899 5.75892 4.63098 4.94588C5.47206 4.13283 6.46915 3.49862 7.56207 3.08152C8.65499 2.66441 9.82109 2.47305 10.99 2.519C12.1573 2.47942 13.3207 2.67515 14.4108 3.09455C15.5009 3.51395 16.4954 4.14843 17.3352 4.96021C18.1749 5.77198 18.8428 6.74446 19.2989 7.81971C19.755 8.89497 19.99 10.051 19.99 11.219C19.99 12.387 19.755 13.543 19.2989 14.6183C18.8428 15.6935 18.1749 16.666 17.3352 17.4778C16.4954 18.2896 15.5009 18.9241 14.4108 19.3434C13.3207 19.7628 12.1573 19.9586 10.99 19.919H10.991ZM14.726 8.104L12.413 10.859L9.066 8.803C8.86176 8.67728 8.61909 8.62932 8.38238 8.66788C8.14568 8.70645 7.93077 8.82896 7.777 9.013L4.726 12.649C4.63464 12.7485 4.56437 12.8654 4.51943 12.9928C4.4745 13.1201 4.45583 13.2553 4.46455 13.3901C4.47327 13.5248 4.50921 13.6564 4.57018 13.777C4.63116 13.8975 4.71591 14.0044 4.81933 14.0912C4.92275 14.1781 5.0427 14.2431 5.17193 14.2823C5.30116 14.3216 5.437 14.3342 5.57126 14.3195C5.70551 14.3048 5.8354 14.2631 5.95309 14.1968C6.07077 14.1306 6.17381 14.0412 6.256 13.934L8.755 10.959L12.102 13.015C12.3062 13.1407 12.5489 13.1887 12.7856 13.1501C13.0223 13.1116 13.2372 12.989 13.391 12.805L16.257 9.39C16.3451 9.28998 16.4124 9.17334 16.4548 9.04695C16.4972 8.92056 16.5139 8.78697 16.5039 8.65402C16.4939 8.52108 16.4575 8.39148 16.3967 8.27283C16.3359 8.15419 16.252 8.0489 16.1499 7.96315C16.0478 7.87741 15.9296 7.81294 15.8023 7.77354C15.6749 7.73414 15.541 7.7206 15.4083 7.73372C15.2756 7.74685 15.1469 7.78636 15.0298 7.84995C14.9126 7.91354 14.8093 7.99992 14.726 8.104Z" fill="white"/>
</svg>
