<svg width="14" height="23" viewBox="0 0 14 23" fill="none" xmlns="http://www.w3.org/2000/svg">
<path d="M13.434 20.027L12.472 17.174C12.4269 17.0398 12.3537 16.9167 12.2574 16.8128C12.1611 16.709 12.0438 16.6268 11.9134 16.5717C11.7829 16.5165 11.6422 16.4898 11.5006 16.4931C11.359 16.4965 11.2198 16.5298 11.092 16.591C10.7058 16.7399 10.2976 16.824 9.88403 16.84C9.65112 16.8697 9.41559 16.8108 9.22403 16.675C9.04931 16.4435 8.96441 16.1564 8.98503 15.867V11.519H12.002C12.2672 11.519 12.5216 11.4137 12.7091 11.2261C12.8967 11.0386 13.002 10.7843 13.002 10.519V6.61404C13.002 6.34883 12.8967 6.09447 12.7091 5.90694C12.5216 5.7194 12.2672 5.61404 12.002 5.61404H9.00003V1.51904C9.00003 1.25383 8.89467 0.999472 8.70713 0.811936C8.5196 0.6244 8.26524 0.519043 8.00003 0.519043H5.07003C4.78528 0.520509 4.51123 0.62775 4.30112 0.81994C4.091 1.01213 3.95981 1.27555 3.93303 1.55904C3.89325 2.55665 3.56113 3.52056 2.97797 4.33094C2.39481 5.14132 1.58632 5.76243 0.653028 6.11704C0.459384 6.18659 0.291905 6.31417 0.173433 6.48239C0.0549612 6.65062 -0.0087363 6.85129 -0.00897217 7.05704V10.642C-0.00897217 10.9073 0.0963846 11.1616 0.283921 11.3491C0.471457 11.5367 0.725812 11.642 0.991028 11.642H2.01603V16.177C2.03278 17.8594 2.71015 19.4677 3.90203 20.655C4.56713 21.2788 5.34919 21.7647 6.20308 22.0847C7.05697 22.4046 7.96577 22.5522 8.87703 22.519H9.04003C10.586 22.493 12.658 21.871 13.313 20.911C13.4001 20.7832 13.4562 20.6369 13.4771 20.4837C13.4979 20.3304 13.4828 20.1745 13.433 20.028L13.434 20.027ZM9.00703 20.517C8.3344 20.5705 7.658 20.4837 7.02073 20.2619C6.38345 20.0402 5.7992 19.6885 5.30503 19.229C4.49106 18.4205 4.02772 17.3243 4.01503 16.177V10.642C4.01503 10.3768 3.90967 10.1225 3.72213 9.93494C3.5346 9.7474 3.28024 9.64204 3.01503 9.64204H1.99203V7.72504C3.0019 7.23061 3.87681 6.49867 4.54178 5.59196C5.20675 4.68525 5.64193 3.63082 5.81003 2.51904H7.00003V6.61404C7.00003 6.87926 7.10538 7.13361 7.29292 7.32115C7.48046 7.50869 7.73481 7.61404 8.00003 7.61404H11.002V9.51904H7.98503C7.71981 9.51904 7.46546 9.6244 7.27792 9.81194C7.09038 9.99947 6.98503 10.2538 6.98503 10.519V15.884C6.97132 16.2949 7.04009 16.7044 7.18729 17.0883C7.33448 17.4722 7.55711 17.8227 7.84203 18.119C8.12292 18.377 8.4541 18.5742 8.81479 18.6981C9.17549 18.822 9.5579 18.87 9.93803 18.839C10.2562 18.827 10.5729 18.7892 10.885 18.726L11.31 19.986C10.586 20.3163 9.80262 20.4969 9.00703 20.517Z" fill="white"/>
</svg>
