<svg width="21" height="23" viewBox="0 0 21 23" fill="none" xmlns="http://www.w3.org/2000/svg">
<path d="M9.06999 20.022C9.0699 19.8755 9.03761 19.7308 8.97541 19.5982C8.91321 19.4655 8.82262 19.3482 8.71005 19.2544C8.59748 19.1606 8.46568 19.0927 8.32397 19.0555C8.18227 19.0183 8.03411 19.0127 7.89 19.039C6.58 19.279 4.927 19.315 4.488 18.081C4.10476 17.1251 3.46999 16.2906 2.651 15.666C2.59237 15.6341 2.5365 15.5973 2.484 15.5561C2.41228 15.3672 2.28503 15.2045 2.11902 15.0893C1.95301 14.9742 1.75602 14.912 1.554 14.911H1.549C1.28464 14.911 1.03104 15.0157 0.84365 15.2022C0.656257 15.3886 0.550317 15.6417 0.548995 15.906C0.544995 16.721 1.359 17.244 1.69 17.42C2.07998 17.8119 2.39335 18.2731 2.614 18.78C2.979 19.803 4.037 21.356 7.08 21.156L7.083 21.254L7.087 21.522C7.087 21.7873 7.19235 22.0416 7.37989 22.2292C7.56742 22.4167 7.82178 22.522 8.087 22.522C8.35221 22.522 8.60657 22.4167 8.7941 22.2292C8.98164 22.0416 9.087 21.7873 9.087 21.522L9.082 21.204C9.07699 21.014 9.06999 20.74 9.06999 20.022ZM19.737 4.89605C19.7726 4.7573 19.8026 4.61719 19.827 4.47605C19.9888 3.36166 19.8479 2.22426 19.419 1.18305C19.3649 1.0474 19.2819 0.925205 19.1757 0.825018C19.0694 0.724831 18.9426 0.649074 18.804 0.60305C18.448 0.48305 17.134 0.24605 14.62 1.85305C12.5305 1.36137 10.3555 1.36137 8.266 1.85305C5.762 0.26905 4.455 0.48505 4.102 0.59805C3.95991 0.642147 3.82949 0.717483 3.72031 0.818536C3.61112 0.919588 3.52594 1.04379 3.471 1.18205C3.03295 2.24333 2.89325 3.40414 3.067 4.53905C3.092 4.66605 3.118 4.78505 3.146 4.89305C2.3172 5.99668 1.87571 7.34294 1.89 8.72305C1.8875 9.03061 1.90186 9.33807 1.933 9.64405C2.267 14.247 5.267 15.628 7.357 16.103C7.31162 16.2345 7.27225 16.368 7.239 16.503C7.17548 16.7606 7.21686 17.0328 7.35404 17.2598C7.49122 17.4868 7.71297 17.65 7.9705 17.7135C8.22802 17.7771 8.50023 17.7357 8.72724 17.5985C8.95426 17.4613 9.11748 17.2396 9.18099 16.982C9.24465 16.6488 9.40782 16.3427 9.649 16.104C9.79449 15.9763 9.89977 15.8091 9.95207 15.6227C10.0044 15.4363 10.0014 15.2387 9.94362 15.0539C9.88581 14.8692 9.7756 14.7052 9.62638 14.5818C9.47716 14.4585 9.29534 14.3811 9.10299 14.359C5.64899 13.964 4.149 12.557 3.923 9.46005C3.89825 9.21486 3.88723 8.96847 3.89 8.72205C3.87411 7.7386 4.19919 6.77998 4.81 6.00905C4.8711 5.92884 4.93618 5.85175 5.005 5.77805C5.12752 5.64099 5.2099 5.4728 5.24307 5.29197C5.27623 5.11115 5.25891 4.92467 5.193 4.75305C5.12566 4.57279 5.07381 4.38712 5.038 4.19805C4.95657 3.65949 4.98343 3.1101 5.117 2.58205C5.98615 2.82763 6.80413 3.22731 7.53199 3.76205C7.65228 3.84215 7.78836 3.89547 7.93104 3.91842C8.07372 3.94137 8.21966 3.9334 8.359 3.89505C10.3801 3.34651 12.511 3.34686 14.532 3.89605C14.6721 3.93439 14.8188 3.94191 14.9621 3.91809C15.1054 3.89427 15.2418 3.83967 15.362 3.75805C16.0867 3.22126 16.9015 2.81827 17.768 2.56805C17.9006 3.08319 17.9302 3.61945 17.855 4.14605C17.8187 4.35344 17.7621 4.55676 17.686 4.75305C17.6201 4.92467 17.6028 5.11115 17.6359 5.29197C17.6691 5.4728 17.7515 5.64099 17.874 5.77805C17.952 5.86505 18.029 5.95805 18.098 6.04605C18.7044 6.80402 19.0238 7.75167 19 8.72205C19.0017 8.98155 18.989 9.24095 18.962 9.49905C18.742 12.555 17.237 13.963 13.767 14.359C13.5744 14.3809 13.3924 14.4582 13.2429 14.5816C13.0935 14.7051 12.9832 14.8692 12.9253 15.0542C12.8675 15.2392 12.8646 15.437 12.9171 15.6235C12.9696 15.8101 13.0752 15.9774 13.221 16.1051C13.4695 16.35 13.6329 16.6683 13.687 17.013C13.7549 17.2809 13.7862 17.5568 13.78 17.833V20.166C13.77 20.814 13.77 21.299 13.77 21.522C13.77 21.7873 13.8754 22.0416 14.0629 22.2292C14.2504 22.4167 14.5048 22.522 14.77 22.522C15.0352 22.522 15.2896 22.4167 15.4771 22.2292C15.6646 22.0416 15.77 21.7873 15.77 21.522C15.77 21.305 15.77 20.83 15.78 20.182V17.832C15.7879 17.39 15.7358 16.949 15.625 16.521C15.5934 16.3805 15.5547 16.2417 15.509 16.1051C17.0302 15.8522 18.4123 15.0678 19.4094 13.8914C20.4065 12.7151 20.9538 11.2231 20.954 9.68105C20.987 9.36247 21.0023 9.04232 21 8.72205C21.0221 7.34084 20.5771 5.99265 19.737 4.89605Z" fill="white"/>
</svg>
