<svg width="20" height="21" viewBox="0 0 20 21" fill="none" xmlns="http://www.w3.org/2000/svg">
<path d="M14.6 12.5191C14.4 12.4191 13.1 11.8191 12.9 11.7191C12.7 11.6191 12.5 11.6191 12.3 11.8191C12.1 12.0191 11.7 12.6191 11.5 12.8191C11.4 13.0191 11.2 13.0191 11 12.9191C10.3 12.6191 9.6 12.2191 9 11.7191C8.5 11.2191 8 10.6191 7.6 10.0191C7.5 9.81914 7.6 9.61914 7.7 9.51914C7.8 9.41914 7.9 9.21914 8.1 9.11914C8.2 9.01914 8.3 8.81914 8.3 8.71914C8.4 8.61914 8.4 8.41914 8.3 8.31914C8.2 8.21914 7.7 7.01914 7.5 6.51914C7.4 5.81914 7.2 5.81914 7 5.81914H6.5C6.3 5.81914 6 6.01914 5.9 6.11914C5.3 6.71914 5 7.41914 5 8.21914C5.1 9.11914 5.4 10.0191 6 10.8191C7.1 12.4191 8.5 13.7191 10.2 14.5191C10.7 14.7191 11.1 14.9191 11.6 15.0191C12.1 15.2191 12.6 15.2191 13.2 15.1191C13.9 15.0191 14.5 14.5191 14.9 13.9191C15.1 13.5191 15.1 13.1191 15 12.7191L14.6 12.5191ZM17.1 3.41914C13.2 -0.480859 6.9 -0.480859 3 3.41914C-0.2 6.61914 -0.8 11.5191 1.4 15.4191L0 20.5191L5.3 19.1191C6.8 19.9191 8.4 20.3191 10 20.3191C15.5 20.3191 19.9 15.9191 19.9 10.4191C20 7.81914 18.9 5.31914 17.1 3.41914ZM14.4 17.4191C13.1 18.2191 11.6 18.7191 10 18.7191C8.5 18.7191 7.1 18.3191 5.8 17.6191L5.5 17.4191L2.4 18.2191L3.2 15.2191L3 14.9191C0.6 10.9191 1.8 5.91914 5.7 3.41914C9.6 0.919141 14.6 2.21914 17 6.01914C19.4 9.91914 18.3 15.0191 14.4 17.4191Z" fill="white"/>
</svg>
